<svg xmlns="http://www.w3.org/2000/svg" viewBox="0 0 512 512" width="512" height="512" role="img" aria-label="MANPAGES.EXE">
  <defs>
    <linearGradient id="bg" x1="0" y1="0" x2="0" y2="1">
      <stop offset="0" stop-color="#1d0d44"/>
      <stop offset="0.55" stop-color="#120826"/>
      <stop offset="1" stop-color="#0a0417"/>
    </linearGradient>
    <radialGradient id="glow" cx="0.5" cy="0.44" r="0.62">
      <stop offset="0" stop-color="#ff2e88" stop-opacity="0.42"/>
      <stop offset="0.55" stop-color="#ff2e88" stop-opacity="0.10"/>
      <stop offset="1" stop-color="#ff2e88" stop-opacity="0"/>
    </radialGradient>
    <linearGradient id="slash" x1="0" y1="1" x2="1" y2="0">
      <stop offset="0" stop-color="#ff1f7a"/>
      <stop offset="0.5" stop-color="#ff64a6"/>
      <stop offset="1" stop-color="#ffd60a"/>
    </linearGradient>
    <linearGradient id="edge" x1="0" y1="0" x2="1" y2="1">
      <stop offset="0" stop-color="#ff2e88"/>
      <stop offset="1" stop-color="#5ce1ff"/>
    </linearGradient>
    <filter id="neon" x="-40%" y="-40%" width="180%" height="180%">
      <feGaussianBlur stdDeviation="7" result="b"/>
      <feMerge><feMergeNode in="b"/><feMergeNode in="SourceGraphic"/></feMerge>
    </filter>
    <pattern id="scan" width="6" height="6" patternUnits="userSpaceOnUse">
      <rect width="6" height="3" fill="#ffffff" opacity="0.035"/>
    </pattern>
  </defs>

  <!-- Fond PLEIN CADRE : aucune transparence, iOS/Android appliquent leur propre masque -->
  <rect width="512" height="512" fill="url(#bg)"/>
  <rect width="512" height="512" fill="url(#glow)"/>
  <rect width="512" height="512" fill="url(#scan)"/>

  <!-- Cadre néon inséré dans la zone de sécurité (ne sera pas rogné) -->
  <rect x="52" y="52" width="408" height="408" rx="72" fill="none" stroke="url(#edge)" stroke-width="8" opacity="0.85"/>
  <g stroke="#ff2e88" stroke-width="5" fill="none" opacity="0.5">
    <polyline points="84,132 84,84 132,84"/>
    <polyline points="428,132 428,84 380,84"/>
    <polyline points="84,380 84,428 132,428"/>
    <polyline points="428,380 428,428 380,428"/>
  </g>

  <!-- groupe centré (recale les // et le curseur au centre géométrique) -->
  <g transform="translate(-40,-14)">
    <!-- écho cyan (aberration chromatique) -->
    <g transform="translate(-12,6)" opacity="0.7" filter="url(#neon)">
      <polygon points="168,378 222,378 336,166 282,166" fill="#5ce1ff"/>
      <polygon points="256,378 310,378 424,166 370,166" fill="#5ce1ff"/>
    </g>

    <!-- les // signature -->
    <g filter="url(#neon)">
      <polygon points="168,378 222,378 336,166 282,166" fill="url(#slash)"/>
      <polygon points="256,378 310,378 424,166 370,166" fill="url(#slash)"/>
      <polygon points="168,378 180,378 294,166 282,166" fill="#ffffff" opacity="0.6"/>
      <polygon points="256,378 268,378 382,166 370,166" fill="#ffffff" opacity="0.6"/>
    </g>

    <!-- curseur terminal, centré sous les // -->
    <rect x="240" y="398" width="112" height="24" rx="4" fill="#5ce1ff" filter="url(#neon)"/>
  </g>
</svg>
